<svg width="110" height="34" viewBox="0 0 110 34" fill="none" xmlns="http://www.w3.org/2000/svg">
<path fill-rule="evenodd" clip-rule="evenodd" d="M73.2545 24.0175C77.4558 24.0175 80.8617 20.6243 80.8617 16.4386C80.8617 12.2528 77.4558 8.85962 73.2545 8.85962C69.0531 8.85962 65.6473 12.2528 65.6473 16.4386C65.6473 20.6243 69.0531 24.0175 73.2545 24.0175ZM50.4329 24.2982C54.6342 24.2982 58.0401 20.905 58.0401 16.7193C58.0401 12.5335 54.6342 9.14032 50.4329 9.14032C46.2315 9.14032 42.8257 12.5335 42.8257 16.7193C42.8257 20.905 46.2315 24.2982 50.4329 24.2982Z" fill="white"/>
<path fill-rule="evenodd" clip-rule="evenodd" d="M65.169 2.63069C65.8973 2.06196 66.8218 1.6907 67.9469 1.59732C71.4551 1.30614 75.8107 2.85593 77.1644 3.69471C77.3693 3.82168 77.4369 4.07191 77.3674 4.30274C77.2655 4.64132 76.9085 4.83157 76.5644 4.75001C73.6185 4.05158 69.6545 4.33306 68.5427 4.61454C65.9303 5.27595 63.0451 4.28932 65.169 2.63069ZM59.0818 2.63073C58.3536 2.062 57.4291 1.69075 56.304 1.59736C52.7958 1.30618 48.4402 2.85598 47.0865 3.69476C46.8816 3.82172 46.814 4.07196 46.8835 4.30279C46.9854 4.64137 47.3424 4.83162 47.6865 4.75005C50.6324 4.05163 54.5964 4.33311 55.7081 4.61458C58.3206 5.27599 61.2058 4.28937 59.0818 2.63073Z" fill="#2D5BFF"/>
<ellipse cx="53.5321" cy="19.5263" rx="4.22623" ry="4.21053" fill="#181818"/>
<ellipse cx="76.072" cy="19.5263" rx="4.22622" ry="4.21053" fill="#181818"/>
<path d="M32.286 26.0994L40.8746 0.719238H38.2908L30.8303 22.6549L23.3334 0.719238H20.8224L13.2163 22.5461L5.86507 0.719238H3.09924L11.6879 26.0994H14.4901L21.9869 4.45374L29.4474 26.0994H32.286Z" fill="#2D5BFF"/>
<path fill-rule="evenodd" clip-rule="evenodd" d="M45.5209 25.0479C47.0009 25.8697 48.6628 26.2806 50.5067 26.2806C52.3506 26.2806 54.0125 25.8697 55.4925 25.0479C56.9724 24.2019 58.1249 23.0417 58.9498 21.5672C59.732 20.2089 60.154 18.6865 60.2156 16.9999H63.5778C63.6394 18.6865 64.0614 20.2089 64.8436 21.5672C65.6928 23.0417 66.8573 24.2019 68.3373 25.0479C69.8173 25.8697 71.4792 26.2806 73.3231 26.2806C75.167 26.2806 76.8289 25.8697 78.3088 25.0479C79.7888 24.2019 80.9412 23.0417 81.7661 21.5672C82.6153 20.0927 83.0399 18.4249 83.0399 16.5637C83.0399 14.7025 82.6153 13.0346 81.7661 11.5602C80.9412 10.0857 79.7888 8.93756 78.3088 8.11573C76.8289 7.2939 75.167 6.88298 73.3231 6.88298C71.4792 6.88298 69.8173 7.2939 68.3373 8.11573C66.8573 8.93756 65.6928 10.0857 64.8436 11.5602C64.3258 12.4594 63.9658 13.4306 63.7638 14.4736H60.0296C59.8276 13.4306 59.4676 12.4594 58.9498 11.5602C58.1249 10.0857 56.9724 8.93756 55.4925 8.11573C54.0125 7.2939 52.3506 6.88298 50.5067 6.88298C48.6628 6.88298 47.0009 7.2939 45.5209 8.11573C44.041 8.93756 42.8764 10.0857 42.0273 11.5602C41.1781 13.0346 40.7535 14.7025 40.7535 16.5637C40.7535 18.4249 41.1781 20.0927 42.0273 21.5672C42.8764 23.0417 44.041 24.2019 45.5209 25.0479ZM54.146 23.09C53.0784 23.6943 51.8654 23.9964 50.5067 23.9964C49.1481 23.9964 47.9228 23.6943 46.8311 23.09C45.7636 22.4615 44.9144 21.5793 44.2836 20.4432C43.6771 19.3072 43.3738 18.014 43.3738 16.5637C43.3738 15.1134 43.6771 13.8202 44.2836 12.6842C44.9144 11.5481 45.7636 10.6779 46.8311 10.0736C47.9228 9.44517 49.1481 9.13094 50.5067 9.13094C51.8654 9.13094 53.0784 9.44517 54.146 10.0736C55.2377 10.6779 56.0869 11.5481 56.6934 12.6842C57.3 13.8202 57.6032 15.1134 57.6032 16.5637C57.6032 18.014 57.3 19.3072 56.6934 20.4432C56.0869 21.5793 55.2377 22.4615 54.146 23.09ZM73.3231 23.9964C74.6817 23.9964 75.8948 23.6943 76.9623 23.09C78.0541 22.4615 78.9032 21.5793 79.5098 20.4432C80.1163 19.3072 80.4196 18.014 80.4196 16.5637C80.4196 15.1134 80.1163 13.8202 79.5098 12.6842C78.9032 11.5481 78.0541 10.6779 76.9623 10.0736C75.8948 9.44517 74.6817 9.13094 73.3231 9.13094C71.9644 9.13094 70.7392 9.44517 69.6474 10.0736C68.5799 10.6779 67.7308 11.5481 67.1 12.6842C66.4934 13.8202 66.1901 15.1134 66.1901 16.5637C66.1901 18.014 66.4934 19.3072 67.1 20.4432C67.7308 21.5793 68.5799 22.4615 69.6474 23.09C70.7392 23.6943 71.9644 23.9964 73.3231 23.9964Z" fill="#2D5BFF"/>
<path fill-rule="evenodd" clip-rule="evenodd" d="M101.927 8.11573C100.471 7.2939 98.8458 6.88298 97.0504 6.88298C95.4492 6.88298 94.0056 7.22138 92.7197 7.89819C91.4581 8.57499 90.4391 9.54185 89.6628 10.7988V7.02801H87.1881V33.1333H89.7719V22.5099C90.5726 23.7426 91.5916 24.6853 92.8289 25.338C94.0905 25.9664 95.4977 26.2806 97.0504 26.2806C98.87 26.2806 100.496 25.8818 101.927 25.0842C103.383 24.2623 104.523 23.1142 105.348 21.6397C106.173 20.1652 106.585 18.4732 106.585 16.5637C106.585 14.6783 106.173 12.9984 105.348 11.5239C104.523 10.0495 103.383 8.91339 101.927 8.11573ZM100.508 23.09C99.4159 23.6943 98.2029 23.9964 96.8685 23.9964C95.5098 23.9964 94.2846 23.6943 93.1928 23.09C92.1253 22.4615 91.2762 21.5793 90.6453 20.4432C90.0388 19.3072 89.7355 18.014 89.7355 16.5637C89.7355 15.1134 90.0388 13.8323 90.6453 12.7204C91.2762 11.5843 92.1253 10.7021 93.1928 10.0736C94.2846 9.44517 95.5098 9.13094 96.8685 9.13094C98.2029 9.13094 99.4159 9.44517 100.508 10.0736C101.599 10.7021 102.449 11.5843 103.055 12.7204C103.686 13.8323 104.001 15.1134 104.001 16.5637C104.001 18.014 103.686 19.3072 103.055 20.4432C102.449 21.5793 101.599 22.4615 100.508 23.09Z" fill="#2D5BFF"/>
</svg>
